#!OML:ASF X:\für Bonn\!DataBase\2005_08_11_Bastian_Final\c3d\Bastian.ASF
:FULLY-SPECIFIED
:DEGREES
293
root 21.451 16.8842 -5.639 545.657 -129.886 -170.675
lowerback 60.6832 3.5828 6.93224
upperback 17.5969 5.95263 2.11815
thorax -1.20914 2.39497 -2.92541
lowerneck -3.71127 -11.9705 4.44463
upperneck -30.3349 -13.3508 17.9875
head -7.86014 -9.29878 6.10145
rclavicle -4.45278e-014 4.94974e-014
rhumerus 45.7884 23.7506 -47.3277
rradius 26.0203
rwrist -15.5804
rhand -36.9138 2.97898
rfingers 7.12502
rthumb -9.99149 -26.7639
lclavicle -4.45278e-014 4.94974e-014
lhumerus -10.2495 -27.57 90.3556
lradius 35.421
lwrist 29.8532
lhand -11.6205 -13.6431
lfingers 7.12502
lthumb 14.4227 15.8357
rfemur -44.8001 -26.2779 24.8508
rtibia 55.457
rfoot -19.8466 -7.74249
rtoes 10.0788
lfemur -41.745 -9.61482 -24.3056
ltibia 38.9565
lfoot -2.20808 -15.757
ltoes -21.8493
294
root 21.4274 16.9124 -5.60951 545.268 -129.521 -170.959
lowerback 60.2795 3.81456 6.63728
upperback 17.5882 6.02826 2.16114
thorax -1.24309 2.40243 -2.79124
lowerneck -3.79007 -12.0202 4.36061
upperneck -30.1477 -13.4717 17.9368
head -7.7672 -9.32431 6.07107
rclavicle 6.36111e-015 8.68689e-014
rhumerus 44.9632 24.8323 -47.5752
rradius 26.3751
rwrist -15.9227
rhand -36.8659 3.20165
rfingers 7.12502
rthumb -9.94524 -26.5434
lclavicle 6.36111e-015 8.68689e-014
lhumerus -10.2052 -27.2623 90.3548
lradius 35.0197
lwrist 29.6258
lhand -11.6098 -13.6983
lfingers 7.12502
lthumb 14.433 15.7799
rfemur -43.5324 -25.8791 24.5593
rtibia 54.8982
rfoot -19.7931 -7.80414
rtoes 9.92265
lfemur -40.7173 -9.49143 -24.1617
ltibia 38.6309
lfoot -2.33035 -15.4791
ltoes -21.6785
295
root 21.4041 16.9388 -5.57881 544.892 -129.154 -171.237
lowerback 59.8265 4.02492 6.34718
upperback 17.6191 6.07835 2.1985
thorax -1.22936 2.40173 -2.65383
lowerneck -3.93461 -12.0517 4.18555
upperneck -29.9776 -13.559 17.9616
head -7.65532 -9.33327 6.07265
rclavicle -1.27222e-014 -3.26007e-014
rhumerus 44.2127 25.8939 -47.7808
rradius 26.7415
rwrist -16.2838
rhand -36.8269 3.40417
rfingers 7.12502
rthumb -9.90765 -26.3427
lclavicle -1.27222e-014 -3.26007e-014
lhumerus -10.1277 -26.8676 90.3407
lradius 34.6358
lwrist 29.3693
lhand -11.563 -13.7311
lfingers 7.12502
lthumb 14.4781 15.7438
rfemur -42.3052 -25.4722 24.2779
rtibia 54.3459
rfoot -19.7113 -7.88909
rtoes 9.72375
lfemur -39.7105 -9.37578 -24.0338
ltibia 38.311
lfoot -2.50592 -15.1773
ltoes -21.6618
296
root 21.3799 16.9646 -5.54693 544.625 -128.81 -171.604
lowerback 59.3165 4.1958 6.13513
upperback 17.6588 6.12791 2.23224
thorax -1.19365 2.40773 -2.55249
lowerneck -4.22895 -12.095 4.00908
upperneck -29.6793 -13.6855 17.987
head -7.47033 -9.34918 6.04943
rclavicle 1.24042e-013 -1.51076e-013
rhumerus 43.4063 26.8565 -48.1119
rradius 27.0786
rwrist -16.4785
rhand -36.796 3.55767
rfingers 7.12502
rthumb -9.87782 -26.1906
lclavicle 1.24042e-013 -1.51076e-013
lhumerus -10.0516 -26.4984 90.3097
lradius 34.278
lwrist 29.114
lhand -11.5506 -13.759
lfingers 7.12502
lthumb 14.4901 15.715
rfemur -41.1225 -25.0679 24.0865
rtibia 53.7955
rfoot -19.6459 -7.98352
rtoes 9.68951
lfemur -38.7537 -9.2645 -23.8398
ltibia 38.0006
lfoot -2.65584 -14.9105
ltoes -21.721
297
root 21.354 16.989 -5.51343 544.314 -128.451 -171.9
lowerback 58.7798 4.36818 5.88866
upperback 17.7166 6.16004 2.25109
thorax -1.13664 2.40684 -2.44467
lowerneck -4.50743 -12.1164 3.77252
upperneck -29.4336 -13.7573 18.093
head -7.29769 -9.34498 6.06594
rclavicle 0 -2.0276e-014
rhumerus 42.6466 27.8331 -48.3744
rradius 27.4632
rwrist -16.8019
rhand -36.7742 3.7358
rfingers 7.12502
rthumb -9.85677 -26.0135
lclavicle 0 -2.0276e-014
lhumerus -9.93608 -26.1645 90.2465
lradius 33.9011
lwrist 28.8963
lhand -11.5624 -13.7442
lfingers 7.12502
lthumb 14.4787 15.7307
rfemur -39.9644 -24.6955 23.8638
rtibia 53.2558
rfoot -19.5894 -8.03631
rtoes 9.50001
lfemur -37.7908 -9.1896 -23.684
ltibia 37.6918
lfoot -2.81185 -14.6076
ltoes -21.5351
298
root 21.3277 17.0148 -5.47937 543.984 -128.1 -172.189
lowerback 58.212 4.52506 5.65155
upperback 17.8257 6.17522 2.27249
thorax -1.01756 2.40064 -2.32875
lowerneck -4.89931 -12.1308 3.5092
upperneck -29.1581 -13.8306 18.2097
head -7.09234 -9.33641 6.07724
rclavicle -2.54444e-014 3.77691e-014
rhumerus 41.9405 28.7106 -48.6843
rradius 27.7582
rwrist -16.9075
rhand -36.7598 3.85737
rfingers 7.12502
rthumb -9.84287 -25.8926
lclavicle -2.54444e-014 3.77691e-014
lhumerus -9.74405 -25.7914 90.1596
lradius 33.4899
lwrist 28.6561
lhand -11.556 -13.7923
lfingers 7.12502
lthumb 14.4848 15.6821
rfemur -38.7932 -24.3173 23.6395
rtibia 52.7174
rfoot -19.5066 -8.13114
rtoes 9.00787
lfemur -36.8121 -9.11598 -23.547
ltibia 37.384
lfoot -2.96584 -14.2935
ltoes -21.3842
